<svg xmlns="http://www.w3.org/2000/svg" viewBox="0 0 457.44 487.98">
        <style>.cls-1{fill:#FFFFFF;stroke:#FFFFFF;stroke-miterlimit:10;stroke-width:8px;}</style>
    <path class="cls-1" transform="translate(-111.18 2.56)"
          d="M218.33,390.1c-4.23,3.56-8.52,6.48-6.62,13.73,1.69,6.41-1.17,12.44-5.94,17.21q-27.54,27.58-55.15,55.12c-9,8.92-22.4,9-30.87.36s-8-22,.89-30.93c17.89-17.93,35.85-35.78,53.71-53.73,6.13-6.16,13.21-8.55,21.82-6.79a7.51,7.51,0,0,0,5.19-1.43c2-1.42,3.5-3.51,5-5.07-5.42-8.36-11.33-16.22-15.92-24.79a126.14,126.14,0,0,1,30.81-156.57,9.27,9.27,0,0,0,3.7-8.05q-.13-85,0-170c0-13.37,5.72-19.1,19.16-19.11Q344.29.05,444.51,0a23.6,23.6,0,0,1,18.16,7.52q48.69,49.17,97.83,97.91a17.87,17.87,0,0,1,5.61,13.35Q566,275,566.05,431.17c0,10.11-6.39,16.44-16.64,16.49-22.16.11-44.32,0-66.48,0H244c-6.1,0-12-.64-15.53-6a22,22,0,0,1-3.45-10.6c-.44-10.15-.46-20.34,0-30.48C225.24,395.22,223.15,392.13,218.33,390.1Zm22.87,41.14H550v-5.76q0-151.47.06-303a10.07,10.07,0,0,0-3.2-7.85Q499.21,67.26,451.8,19.61a10.6,10.6,0,0,0-8.27-3.41q-98.49.12-197,.05c-1.76,0-3.52.17-5.36.27V182.05c66-27,122.8-16.76,165.89,42.28,29.3,40.15,29.89,97.8.95,138.73-42.79,60.5-100.23,70.89-166.87,43.8ZM412.3,294.7c0-61.51-49-110.53-110.37-110.48A110.24,110.24,0,1,0,412.3,294.7ZM190.63,399.63c-2.38,2-4.39,3.37-6.1,5.08q-24.22,24.14-48.35,48.39C134.3,455,132,456.71,130.9,459c-.77,1.54-.6,4.73.48,5.71,1.34,1.21,4.1,1.32,6.17,1.1,1.21-.13,2.31-1.75,3.37-2.81q17.49-17.46,35-35c6-6,12.14-11.88,17.87-18.13a7.86,7.86,0,0,0,1.35-6.16C194.78,402.27,192.48,401.23,190.63,399.63Z"/>
    <path class="cls-1" transform="translate(-111.18 2.56)"
          d="M396.49,132.2H285c-4.61,0-8.34-1.23-9.79-6s1.52-9.48,6.79-10.15a83.27,83.27,0,0,1,10.48-.25h214a34.41,34.41,0,0,1,6,.34c4.16.72,6.43,3.35,6.58,7.57s-2.08,6.94-6.09,8a22.1,22.1,0,0,1-5.44.43h-111Z"/>
    <path class="cls-1" transform="translate(-111.18 2.56)"
          d="M362.44,49.48c25.81,0,51.62-.07,77.42.1,2.62,0,6.09.72,7.62,2.46s2.6,5.75,1.8,8-4,3.77-6.41,5.29c-.84.53-2.28.14-3.45.14H286.59a32,32,0,0,1-4.49-.1c-4.37-.62-6.87-3.2-7.14-7.62a7.59,7.59,0,0,1,7-8.15H282c4.14-.29,8.31-.14,12.48-.14Z"/>
    <path class="cls-1" transform="translate(-111.18 2.56)"
          d="M461.18,182.58c16.33,0,32.67-.21,49,.21a11.06,11.06,0,0,1,7.89,4.58c1.17,1.9.43,6-1,8.15-1.14,1.77-4.49,2.92-6.86,2.93-32.66.19-65.31.16-98,.11-5.87,0-9.26-3.17-9.16-8.17.1-4.63,3.64-7.78,9.08-7.8C428.52,182.54,444.85,182.57,461.18,182.58Z"/>
    <path class="cls-1" transform="translate(-111.18 2.56)"
          d="M468.12,398.42h-41c-6.22,0-9.88-3-10-8s3.64-8.06,9.83-8.06q41.21-.06,82.4,0c6.36,0,9.7,3,9.62,8.18s-3.48,7.86-10,7.88Q488.59,398.48,468.12,398.42Z"/>
    <path class="cls-1" transform="translate(-111.18 2.56)"
          d="M478.25,249.27h31.81c5.52,0,8.92,2.93,9,7.75s-3.23,8.18-8.65,8.25c-11.14.15-22.28.05-33.42.05H446.56c-6.22,0-9.93-3-10-8s3.39-7.91,9.87-7.94c10.61-.07,21.22,0,31.83,0Z"/>
    <path class="cls-1" transform="translate(-111.18 2.56)"
          d="M480,331.82H450.54c-6.12-.05-9.49-2.86-9.59-7.76-.1-5.17,3.4-8.36,9.58-8.38q29.46-.07,58.92,0c6.15,0,9.69,3.22,9.59,8.35-.1,4.91-3.48,7.73-9.58,7.78C499.65,331.87,489.83,331.82,480,331.82Z"/>
    <path class="cls-1" transform="translate(-111.18 2.56)"
          d="M285.8,325.48c13-15.28,25.5-30,38-44.67q15.84-18.65,31.64-37.32c2.72-3.22,5.78-5.75,10.28-4.25,6,2,7.43,8.39,3,13.7q-17.19,20.46-34.56,40.77Q314.07,317.35,294,340.93c-7.14,8.36-12.53,8-18.37-1.13q-15.36-24-30.69-48c-.54-.84-1.12-1.65-1.61-2.53-2.47-4.46-1.61-9.06,2.12-11.5,4-2.6,8.64-1.52,11.59,3,7.36,11.3,14.6,22.68,21.89,34C281.07,318.2,283.24,321.54,285.8,325.48Z"/>
</svg>