<?xml version="1.0" encoding="utf-8"?>
<svg xmlns="http://www.w3.org/2000/svg" viewBox="0 0 1024 1024">
    <style type="text/css">.st0{fill:#464646;stroke:#464646;stroke-width:20;stroke-miterlimit:10;}</style>
    <path class="st0" d="M843.3,870.1C834.8,729.6,739,612.7,609.4,573c78.5-36.7,133-116.4,133-208.9c0-127.2-103.2-230.4-230.4-230.4
	S281.6,236.8,281.6,364.1c0,92.4,54.5,172.2,133.1,208.9c-129.6,39.7-225.5,156.6-233.9,297.1c-0.7,10.9,8,20.2,19,20.2l0,0
	c10,0,18.3-7.8,19-17.7c9-154.1,136.9-276.2,293.3-276.2s284.3,122.1,293.4,276.2c0.6,10,8.9,17.7,19,17.7
	C835.3,890.3,843.9,881,843.3,870.1z M319.5,364.1c0-106.3,86.2-192.5,192.5-192.5s192.5,86.2,192.5,192.5S618.3,556.6,512,556.6
	S319.5,470.4,319.5,364.1z"/>
</svg>
